<svg width="174" height="70" viewBox="0 0 174 70" fill="none" xmlns="http://www.w3.org/2000/svg">
<path fill-rule="evenodd" clip-rule="evenodd" d="M76.0061 6.02017C76.0061 5.33022 75.5703 3.69613 74.9893 2.42518L74.0088 0.137451L76.0061 0.35533C77.0955 0.500582 80.0368 1.04528 82.5424 1.55366C85.048 2.02573 89.224 3.15144 91.8023 3.98664C94.3805 4.85815 98.2297 6.41962 100.336 7.43638C102.442 8.48946 104.875 9.86936 105.783 10.4867C106.691 11.104 108.288 12.3387 111.23 14.7353V12.9197C111.23 11.2129 111.266 11.104 112.065 11.3219C112.501 11.4308 113.917 11.9755 115.224 12.5202C116.531 13.0649 118.565 14.1543 119.763 14.9532C120.962 15.7884 122.814 17.3135 123.903 18.4029C124.992 19.4923 126.518 21.3443 127.28 22.5426C128.079 23.741 129.023 25.7745 129.423 27.0818C129.822 28.389 130.113 30.4226 130.113 31.6209C130.113 32.8192 129.822 34.7075 129.459 35.7969C129.096 36.8863 128.297 38.5204 127.68 39.4282C127.062 40.336 125.937 41.607 125.174 42.297C124.411 42.9869 122.777 44.1852 121.579 44.9478C120.381 45.7104 118.129 46.8361 116.604 47.4171C115.043 48.0344 112.101 48.9059 110.068 49.4143C107.998 49.9227 104.185 50.54 101.607 50.8305C99.0286 51.121 95.9783 51.3389 92.8916 51.3389L94.7073 51.0484C95.7241 50.8668 98.1571 50.2858 100.154 49.7774C102.151 49.2691 104.911 48.2886 106.327 47.635C107.744 46.945 109.741 45.6014 110.83 44.6573C111.883 43.6768 113.191 42.0791 113.735 41.0623C114.534 39.5372 114.68 38.7746 114.68 36.1237C114.68 33.255 114.571 32.8192 113.263 30.1321C112.21 28.0622 111.121 26.5734 109.269 24.7214C107.853 23.3052 105.202 21.199 103.422 20.0007C101.643 18.8024 98.3749 16.9141 96.1598 15.8247C93.9447 14.699 90.6039 13.1739 88.7156 12.4476C86.8274 11.685 85.2296 11.1403 85.1933 11.1766C85.1582 11.2467 85.3938 12.3657 85.6715 13.6844L85.7017 13.8275C86.1737 15.861 86.1737 16.7325 85.8832 18.1851C85.5927 19.456 85.0117 20.5454 83.9223 21.7801C82.8329 22.9784 81.562 23.9225 79.8189 24.7214C78.4027 25.375 76.3692 26.1739 75.2798 26.4644C74.1904 26.7549 72.3021 27.227 71.1038 27.4449C69.9055 27.6991 67.7993 28.389 66.3831 29.0427C64.9669 29.6963 63.1512 30.8583 62.2797 31.6572C61.4082 32.4198 60.3188 33.9086 59.8104 34.8891C59.1931 36.1964 58.9389 37.3221 58.9389 38.8835C58.9389 40.5539 59.1568 41.5344 59.9194 43.0232C60.5004 44.1126 61.4445 45.4199 62.0255 45.8919C62.6065 46.4003 64.6038 47.526 66.3831 48.3975C68.1624 49.2691 70.4865 50.2132 73.2826 51.0484L69.8328 50.8305C67.9446 50.7579 64.749 50.3948 62.7518 50.1043C60.7546 49.8138 57.8858 49.2328 56.397 48.8333C54.9082 48.4339 52.8746 47.7076 51.8579 47.2355C50.8774 46.7635 49.0981 45.5288 47.936 44.4394C46.4835 43.1322 45.4304 41.7523 44.6679 40.1545C43.6874 38.1209 43.5058 37.3947 43.5422 35.0706C43.5422 33.0734 43.76 31.7662 44.4137 30.1684C44.9947 28.6795 45.9388 27.336 47.3187 25.9561C48.4081 24.8304 50.2964 23.4141 51.4947 22.8331C52.6931 22.2158 55.1623 21.2717 56.9417 20.727C58.7573 20.1823 61.5171 19.1655 63.1149 18.4756C64.7127 17.8219 67.073 16.6236 68.3803 15.861C69.6876 15.0984 71.5032 13.7185 72.4837 12.7744C73.4278 11.8666 74.5899 10.2325 75.0982 9.21572C75.6066 8.16264 76.0061 6.71012 76.0061 6.02017ZM5.88549 55.4786C7.01119 54.9702 8.86316 54.3529 10.0615 54.0624C11.4414 53.7719 13.6565 53.6266 16.0532 53.7356C18.1956 53.8082 20.5923 54.135 21.5001 54.4255C22.4079 54.7523 23.6789 55.5512 24.3689 56.2049C25.0225 56.8585 25.7487 57.9479 25.9666 58.6378C26.2571 59.6909 26.2208 60.2719 25.6761 61.7245C25.313 62.8139 24.4052 64.1574 23.5336 64.9926C22.7348 65.8278 21.2822 66.8446 20.3381 67.2804C19.394 67.7161 17.5057 68.3698 16.1621 68.6603C14.4191 69.096 12.5308 69.2049 9.69836 69.096C6.17599 68.9871 5.48604 68.8418 3.52514 67.8977C1.99999 67.1351 1.16478 66.4452 0.656401 65.5373C0.29327 64.8474 -0.0335473 63.7217 0.00276578 62.9954C0.00276578 62.3055 0.256957 61.1798 0.547462 60.4535C0.801654 59.7635 1.67317 58.5652 2.47206 57.8026C3.27094 57.0401 4.79609 56.0233 5.88549 55.4786ZM133.889 54.2803C132.509 54.6434 130.657 55.2607 129.822 55.6965C128.951 56.1322 127.68 57.0038 126.953 57.6574C126.227 58.311 125.319 59.4367 124.956 60.1993C124.593 60.9256 124.266 62.3055 124.266 63.177C124.266 64.5206 124.484 65.0653 125.464 66.1183C126.154 66.9172 127.425 67.7161 128.624 68.1519C129.786 68.5876 132.001 68.9508 133.889 69.096C135.85 69.2049 138.247 69.096 139.881 68.8055C141.442 68.5513 143.694 67.8251 145.074 67.1351C146.453 66.4452 147.906 65.3921 148.414 64.7384C148.923 64.0848 149.322 63.4312 149.322 63.2859C149.322 63.1407 147.579 62.9954 145.437 63.0317C141.769 63.0317 141.479 63.068 140.607 63.9396C140.135 64.4116 139.046 64.9926 138.247 65.1742C137.448 65.3921 136.141 65.4647 135.342 65.3558C134.543 65.2468 133.562 64.8474 133.163 64.4116C132.618 63.8669 132.509 63.3949 132.654 62.3418C132.763 61.6155 133.272 60.4898 133.744 59.8362C134.216 59.1825 135.124 58.3473 135.705 58.0205C136.358 57.6574 137.629 57.4032 138.864 57.4032C140.425 57.3669 141.079 57.5485 141.696 58.0932C142.096 58.4926 142.459 59.0373 142.459 59.2915C142.423 59.6183 143.476 59.7272 146.526 59.7635H150.593C150.194 57.5485 149.649 56.6043 148.886 55.878C148.015 55.0792 146.998 54.6071 145.074 54.1713C143.621 53.8445 141.079 53.5903 139.445 53.5903C137.775 53.5903 135.305 53.9171 133.889 54.2803ZM27.4555 63.3585C27.9963 61.5816 28.6101 59.4942 29.0639 57.9511C29.25 57.3184 29.4091 56.7772 29.5253 56.3864L30.2516 53.9171H34.0644C36.3522 53.9171 37.841 54.0624 37.841 54.2803C37.841 54.4982 37.1874 56.9311 36.3885 59.7272C35.5896 62.5233 34.936 64.9926 34.936 65.1742C34.936 65.4284 36.8969 65.5373 45.1036 65.5373L44.8857 66.9172C44.7768 67.6435 44.6316 68.4061 44.5226 68.5513C44.45 68.6966 40.3103 68.8055 35.2991 68.8055C28.218 68.8055 26.2208 68.7329 26.1482 68.3698C26.1119 68.0792 26.6929 65.8642 27.4555 63.3585ZM49.5814 57.4483L49.5806 57.4511L49.5776 57.4613C49.2767 58.509 48.9257 59.7315 48.5534 61.0345C47.464 64.8111 46.5561 68.1156 46.5561 68.3698C46.5561 68.7329 47.5729 68.8418 50.369 68.8418H54.1819C55.2713 65.0411 56.167 61.8939 56.8691 59.4004C57.5953 56.8948 58.1763 54.6434 58.1763 54.3892C58.1763 54.0624 57.1596 53.9535 54.3635 53.9535C52.2573 53.9535 50.5506 53.9898 50.5506 54.0261C50.5506 54.0738 50.159 55.4371 49.5816 57.4475L49.5815 57.4481L49.5814 57.4483ZM59.6652 61.2161C60.6456 57.73 61.5535 54.6434 61.6624 54.3892C61.7713 54.0261 62.9697 53.9535 71.4306 54.135L72.0116 57.9479C72.3384 60.0541 72.6653 62.015 72.7742 62.3055C72.8831 62.6686 73.791 61.7245 75.4614 59.582C76.8413 57.8026 78.4027 55.8054 79.9642 53.9535H84.4307C86.8637 53.9171 88.9335 54.0261 89.0425 54.0987C89.1514 54.2076 88.3162 57.5485 85.157 68.6603L81.6346 68.7329C79.0564 68.8055 78.1485 68.7329 78.1485 68.3698C78.1485 68.1156 78.6206 66.5904 79.2379 64.92C79.8552 63.2859 80.3273 61.7608 80.3273 61.5792C80.3273 61.3613 80.2184 61.2161 80.0731 61.2161C79.8916 61.2161 78.439 62.9228 73.791 68.8418H71.249C69.8691 68.8418 68.6345 68.6966 68.5619 68.5513C68.4529 68.4061 68.0898 66.6267 67.7267 64.5569C67.3635 62.5233 66.9641 60.8529 66.8188 60.8529C66.6373 60.8529 66.2015 62.3418 65.7658 64.1937C65.4668 65.58 65.1474 66.946 64.9753 67.6823L64.9749 67.6837L64.9736 67.6895L64.9731 67.6915C64.9164 67.934 64.876 68.107 64.8579 68.1882C64.749 68.7692 64.2406 68.8418 61.0814 68.8418C57.7769 68.8418 57.4864 68.7692 57.668 68.1882C57.7769 67.8614 58.6847 64.7021 59.6652 61.2161ZM92.6011 54.1713C92.4559 54.3529 91.5481 57.4395 90.495 61.0345C89.4782 64.6295 88.5704 67.8614 88.4978 68.1882C88.3162 68.7692 88.6793 68.8418 92.3106 68.8418H96.3051L96.3443 68.6545C96.6496 67.1955 96.8586 66.1964 97.0677 65.4647L97.3945 64.1211C102.878 64.1211 105.383 63.9032 106.473 63.649C107.562 63.3949 109.051 62.8502 109.741 62.4507C110.431 62.0513 111.375 61.1434 111.847 60.4535C112.283 59.7635 112.682 58.7105 112.646 58.1295C112.646 57.5121 112.392 56.6769 112.101 56.2049C111.811 55.7691 110.794 55.1155 109.85 54.7887C108.543 54.3529 106.255 54.1713 100.445 54.0261C96.2325 53.9535 92.7101 54.0261 92.6011 54.1713ZM114.098 62.015C115.115 58.4926 116.096 55.2244 116.277 54.7523C116.604 53.9898 116.822 53.9535 124.266 53.9535L124.085 54.9339C123.976 55.4786 123.032 58.8194 120.054 68.6603L116.168 68.7329C114.026 68.8055 112.283 68.7692 112.283 68.6603C112.283 68.581 112.725 66.9846 113.343 64.7508L113.343 64.7479L113.344 64.7471C113.575 63.9103 113.831 62.9842 114.098 62.015ZM154.588 61.0708C151.065 64.9926 148.196 68.3334 148.196 68.515C148.233 68.6966 149.94 68.8418 152.046 68.8418C155.713 68.8418 155.895 68.8055 156.403 67.934C156.948 67.0262 157.021 67.0262 161.051 67.0988C164.973 67.2077 165.118 67.244 165.227 68.0066C165.3 68.8055 165.409 68.8418 169.294 68.8418C172.236 68.8418 173.289 68.7329 173.289 68.3698C173.289 68.1156 172.345 64.8111 171.183 61.0345L169.04 54.135L161.015 53.9171L154.588 61.0708ZM10.5337 58.4201C11.1147 58.0569 12.0225 57.6938 12.6399 57.5485C13.2572 57.4033 13.8745 57.2944 14.0924 57.258C14.3103 57.258 15.0728 57.4033 15.7991 57.5849C16.5617 57.8027 17.3242 58.2748 17.5421 58.6743C17.76 59.0737 17.9053 59.8 17.9053 60.3083C17.9053 60.8167 17.5784 61.8698 17.179 62.6687C16.6343 63.7581 16.017 64.3028 14.746 64.9201C13.4024 65.5011 12.5672 65.6464 11.1873 65.5011C9.88006 65.3559 9.19011 65.0654 8.68173 64.448C8.17334 63.7944 8.0644 63.2134 8.24597 62.124C8.35491 61.3251 8.71804 60.3083 9.00854 59.8726C9.29905 59.4005 9.989 58.7469 10.5337 58.4201ZM98.5203 60.4899L98.9198 59.0374L99.3192 57.5849H101.462C102.624 57.5849 103.931 57.7664 104.33 57.948C104.73 58.1659 105.057 58.6379 105.057 59.0374C105.057 59.4368 104.73 59.9452 104.33 60.1268C103.931 60.3447 102.478 60.4899 98.5203 60.4899ZM161.741 61.0709C160.943 62.1603 160.253 63.2134 160.253 63.395C160.253 63.6128 161.233 63.7581 162.431 63.7581C163.993 63.7581 164.574 63.6492 164.465 63.3223C164.392 63.0681 164.174 62.0514 164.029 61.0709C163.848 60.1268 163.593 59.2553 163.484 59.1826C163.339 59.1463 162.577 59.9815 161.741 61.0709Z" fill="white"/>
</svg>
