<svg width="597" height="310" viewBox="0 0 597 310" fill="none" xmlns="http://www.w3.org/2000/svg">
<path fill-rule="evenodd" clip-rule="evenodd" d="M264 0.600008C262.1 0.800008 254.4 1.50001 247 2.10001C239.6 2.70001 227.4 4.00001 220 5.10001C212.6 6.10001 200.7 8.10001 193.5 9.50001C186.3 11 176 13.2 170.5 14.6C165 16 155.3 18.7 149 20.5C142.7 22.4 133.4 25.3 128.5 27C123.5 28.8 113.4 32.9 106 36.2C98.6004 39.5 88.5004 44.3 83.5004 47C78.5004 49.7 70.2004 54.6 65.0004 58C59.8004 61.4 52.1004 66.9 48.0004 70.3C43.9004 73.6 37.3004 79.5 33.4004 83.4C29.5004 87.3 23.7004 94.1 20.4004 98.5C17.2004 102.9 12.6004 110.1 10.3004 114.5C8.10039 118.9 5.30039 125.4 4.20039 129C3.10039 132.6 1.60039 139.8 0.900391 145C-0.0996094 152.7 -0.0996094 156.4 0.900391 164.5C1.70039 170 3.10039 177.2 4.20039 180.5C5.30039 183.8 7.40039 189.2 8.90039 192.5C10.4004 195.8 13.7004 201.6 16.3004 205.5C18.8004 209.4 23.8004 215.9 27.3004 220C30.9004 224.1 37.6004 230.7 42.2004 234.6C46.7004 238.4 53.0004 243.5 56.0004 245.7C59.0004 248 65.3004 252.2 70.0004 255.1C74.7004 258 84.1004 263.1 91.0004 266.5C97.9004 270 107.5 274.4 112.5 276.5C117.5 278.6 126 281.8 131.5 283.7C137 285.7 146 288.5 151.5 290.1C157 291.7 167.1 294.4 174 296C180.9 297.6 191 299.8 196.5 300.9C202 302 211.2 303.6 217 304.4C222.8 305.3 234 306.7 242 307.7C253.6 309.1 264.9 309.4 298 309.4C331.1 309.4 342.5 309.1 354.5 307.7C362.7 306.7 375.4 305.1 382.5 304C389.6 302.9 400.9 300.9 407.5 299.5C414.1 298.1 424.7 295.6 431 294.1C437.3 292.5 448.4 289.3 455.5 287C462.6 284.7 474 280.6 480.7 277.9C487.5 275.2 498.1 270.5 504.2 267.4C510.4 264.3 520.2 258.9 526 255.4C531.8 251.9 540.1 246.3 544.5 243C548.9 239.7 557.1 232.4 562.8 226.8C568.8 220.8 575.8 212.6 579.5 207C583 201.8 587.2 194.4 588.9 190.5C590.5 186.6 592.6 180.8 593.5 177.5C594.4 174.2 595.5 167.7 596 163C596.5 158 596.5 151 596 146C595.5 141.3 594.1 134.4 592.9 130.5C591.8 126.7 588.9 119.7 586.7 115C584.4 110.3 580 103.1 576.8 99C573.7 94.9 568.5 88.7 565.3 85.3C562.1 82 556.1 76.3 552 72.8C547.9 69.3 540 63.5 534.5 59.8C529 56.2 520.7 51.1 516 48.5C511.3 45.9 501.9 41.2 495 38.1C488.1 34.9 478.4 30.8 473.5 29.1C469.679 27.6962 465.797 26.2924 463.751 25.5527C463.174 25.3439 462.743 25.188 462.5 25.1C461.4 24.6 454.9 22.6 448 20.6C441.1 18.5 431.9 16 427.5 14.9C423.1 13.8 413 11.6 405 9.90001C397 8.30001 386 6.30001 380.5 5.50001C375 4.70001 363.7 3.30001 355.5 2.40001C345.6 1.40001 328.2 0.700008 304 0.500008C283.9 0.300008 265.9 0.400008 264 0.600008ZM272.5 9.59995C269.2 9.79995 260.4 10.4 253 11C245.6 11.6 234.3 12.8 228 13.6C221.7 14.4 211.6 16 205.5 17C203.49 17.3624 201.36 17.7358 199.312 18.0949C195.143 18.8257 191.31 19.4977 189.5 19.9C186.7 20.4 179.1 22.2 172.5 23.9C165.9 25.5 155.1 28.5 148.5 30.5C141.9 32.5 130.4 36.5 123 39.4C115.6 42.3 103.7 47.6 96.5 51.2C89.3 54.7999 79.7 60.0999 75 63C70.3 65.8999 63.1 70.7999 59 73.7999C54.9 76.8999 47.3 83.4999 42.1 88.3999C37 93.3999 30.4 100.9 27.5 105C24.6 109.1 20.3 116.3 18.1 121C15.9 125.7 13.1 133.1 12 137.5C10.8 142.6 10 148.9 10 154.8C10 159.8 10.7 167 11.6 170.8C12.4 174.5 14.3 180.4 15.7 184C17.2 187.6 19.7 192.8 21.3 195.5C22.9 198.3 26.4 203.4 29 207C31.7 210.6 37.6 217.1 42.2 221.6C46.7 226 54.3 232.5 59 236C63.7 239.4 71.3 244.6 76 247.5C80.7 250.4 89 255 94.5 257.7C100 260.5 109 264.7 114.5 267C120 269.3 128.8 272.7 134 274.5C139.2 276.4 148.9 279.4 155.5 281.3C162.1 283.2 171.6 285.8 176.5 287C181.4 288.2 190.2 290.1 196 291.1C201.8 292.2 212.1 294 219 295C225.9 296 239.2 297.6 248.5 298.5C260.3 299.7 275.4 300.2 298 300.2C320.9 300.2 335.7 299.7 348 298.6C357.6 297.6 371.1 296 378 295C384.9 293.9 395.2 292.2 401 291.1C406.8 290 417.8 287.6 425.5 285.7C433.2 283.7 446.5 279.9 455 277.1C463.5 274.4 477.3 269.1 485.5 265.5C493.7 261.9 504.2 256.9 508.8 254.5C513.3 252 520.3 247.9 524.2 245.4C528.2 242.8 534.9 238.2 539 235.1C543.1 232 549.6 226.6 553.4 223C557.2 219.4 562.8 213.4 565.9 209.5C569 205.6 573.2 199.6 575.2 196C577.3 192.4 580.1 186.6 581.5 183C582.9 179.4 584.7 173.2 585.5 169.3C586.3 165.3 587 158.7 587 154.8C587 150.8 586.3 144.6 585.6 141C584.8 137.4 583.5 132.3 582.6 129.5C581.6 126.8 579.1 121.1 576.9 117C574.7 112.9 570.5 106.3 567.5 102.5C564.6 98.7 558.7 92.1 554.4 88C550 83.9 542.2 77.2999 537 73.3999C531.8 69.5 523.2 63.7999 518 60.7C512.8 57.7 503.8 52.7999 498 50C492.2 47.0999 481.4 42.4 474 39.4C466.6 36.5 455.1 32.5 448.5 30.5C441.9 28.5 431.3 25.6 425 24C418.7 22.4 408.8 20.2 403 19.1C397.2 18 386.6 16.2 379.5 15.1C372.4 14 359.3 12.4 350.5 11.5C341.7 10.6 321.9 9.79995 306.5 9.59995C291.1 9.39995 275.8 9.39995 272.5 9.59995Z" fill="white"/>
<path fill-rule="evenodd" clip-rule="evenodd" d="M438.3 76.9C437 77.4 434.7 79.6 433 81.7C431.4 83.8 429.4 87.7 428.5 90.5C427.7 93.2 426.5 100.2 425.9 106C425.3 112 425.1 121.9 425.5 129C425.8 135.9 426.8 145.6 427.6 150.5C428.5 155.4 430.3 163.1 431.8 167.5C433.3 171.9 436.2 178.1 438.2 181.2C440.3 184.4 442 187.4 442 188C442 188.6 440.8 191.4 439.3 194.2C437.9 197.1 434.6 201.7 432.1 204.4C429.6 207 425.7 210.2 423.5 211.5C421.3 212.8 417 214.3 414 215C410.9 215.7 406.6 215.9 404 215.6C401.5 215.2 396.8 213.6 393.5 212.1C389.8 210.3 385.8 207.3 383.1 204.4C380.7 201.7 377.4 196.8 375.7 193.5L372.7 187.5C378.8 178.2 382.1 171.9 383.9 167.5C385.7 163.1 388.3 154.8 389.6 149C390.9 143.2 392.5 132.4 393.1 125C394.2 113.3 394.1 110.2 392.7 102C391.8 96.8 390 90.5 388.8 88.1C387.5 85.6 385.2 82.7 383.7 81.6C382 80.3 379.3 79.5 377 79.5C374.1 79.5 372.4 80.2 370 82.5C368.2 84.2 365.8 87.5 364.5 90C363.3 92.5 361.3 98.6 360.1 103.5C359 108.4 357.6 116 357 120.2C356.5 124.5 356 135.5 356 144.7C356 154 356.6 165.3 357.3 170C358.1 174.7 359 179.1 359.3 179.7C359.7 180.4 359.8 181.8 359.5 182.7C359.3 183.7 357.9 185.1 356.5 185.7C355.1 186.4 351.6 187 348.7 187C345 187 342.3 186.2 339.2 184.5C336.2 182.7 334.3 180.6 332.4 176.7C330 171.8 329.9 171.1 330.9 165C331.5 161.4 332 156 332 153C332 150 331.6 146 331 144.2C330.5 142.5 329.1 140.6 328 140C326.9 139.4 325.2 139 324.2 139C323.3 139 321.4 140.1 320 141.6C317.6 144.1 317.5 144.5 317.5 159.8C317.5 172.4 317.2 176.1 315.8 178.5C314.9 180.1 312.9 182.8 311.4 184.3C309.8 185.9 307.4 187.4 306 187.7C304.6 188 302.1 188 300.5 187.6C298.9 187.3 296.5 186 295.3 184.8C294.1 183.5 292.5 180.9 291.7 179C290.6 176.4 290.5 174.5 291.2 171.5C291.8 169.3 292.2 163.7 292.3 159C292.3 154.3 291.8 148.8 291.2 146.7C290.5 144.6 289 142.5 287.7 141.9C286.5 141.3 284.5 141.1 283.2 141.4C281.9 141.7 280.4 143.5 279.5 145.5C278.6 147.7 278 152.5 277.9 158.3C277.8 163.3 278.1 170 278.5 173C279.2 178.3 279.1 178.7 275.9 182.3C274 184.4 270.9 186.6 269 187.1C267.1 187.7 264.4 187.9 263 187.6C261.6 187.3 259 185.5 257.2 183.5C255.5 181.6 253.5 178.1 252.9 175.7C252.2 173.1 252 167.4 252.4 160.5C252.9 150.6 252.8 149.2 251 146.7L249 144L224.2 145.5C221.1 140.1 219 137.9 217.6 137.2C216.2 136.6 214.3 136 213.4 136C212.6 136 210.5 137.4 208.9 139C207.3 140.6 206 142.9 206 144C206 145.1 208.1 148.1 210.7 150.7L215.3 155.5C214.2 170.4 213.4 173.9 211.3 178C209.1 182.3 207.6 184 204 185.8C200.8 187.4 198.6 187.9 196.5 187.4C194.8 187 192.4 186 191 185C189.6 184.1 187.7 181.7 186.7 179.6C185.3 176.6 185.2 175.1 186 170.8C186.6 167.9 187 162.4 186.9 158.5C186.8 154.6 186.5 150.2 186.1 148.6C185.8 147 184.3 144.8 182.8 143.6C180.2 141.6 179.8 141.6 176.8 143.1C173.8 144.5 173 144.5 167.8 143.1C163 141.7 161.2 141.7 156.5 142.8C153.5 143.4 149 145.4 146.5 147C144 148.6 140.7 151.9 139.2 154.3C137.6 156.6 135.8 160.1 135.1 162C134.5 163.9 134 168.8 134 172.8C134 176.7 134.4 181.1 135 182.5C135.9 184.6 135.5 185.5 132.7 188.6C131 190.6 127.2 193.5 124.5 195.1C121.7 196.6 116.6 198.6 113 199.6C108.5 200.7 103.9 201.1 98 200.8C91.7 200.5 88.1 199.7 84 197.9C81 196.5 76.5 193.6 74 191.3C71.5 189.1 68.1 184.6 66.3 181.4C64.6 178.1 62.4 172.8 61.6 169.5C60.7 166.2 60 160 60 155.8C60 151.5 60.5 145.6 61.1 142.8C61.7 139.9 63.6 134.6 65.3 131C67.3 126.6 70.5 122.4 74.9 118C78.8 114.1 83.9 110.3 87.5 108.6C92.3 106.2 95.2 105.6 102 105.2C109.4 104.9 111.1 105.2 114.9 107.2C117.4 108.5 120.3 110.8 121.4 112.3C122.8 114.2 123.6 117.2 123.9 120.8C124.2 125.4 123.7 127.5 121.7 131.5C120.3 134.3 118 137.6 116.6 139C115.1 140.4 114 142.5 114 143.8C114 145.1 115 146.6 116.5 147.5C117.9 148.3 119.9 148.8 121 148.5C122.1 148.2 124.8 145.9 127.1 143.3C129.3 140.6 132 136.1 133.1 133.3C134.2 130.1 135 125.5 135 121.8C135 117.3 134.3 114.1 132.6 110.5C131.3 107.8 128.7 104.1 126.9 102.3C125 100.5 121.2 98.1 118.5 96.9C115.5 95.6 110.6 94.5 106.5 94.2C102.6 94 97 94.3 94 94.9C91 95.6 85.6 97.5 82 99.2C77.4 101.4 73.2 104.6 67.5 110.4C62.4 115.6 58.2 120.9 56 125C54.2 128.6 51.8 134.4 50.8 138C49.8 141.6 48.7 148.1 48.3 152.5C47.9 158 48.3 163.2 49.4 169C50.3 173.7 52.3 180.2 53.9 183.5C55.4 186.8 58.5 191.8 60.7 194.5C62.9 197.3 67.1 201.2 70.1 203.3C73.1 205.3 78.5 208.2 82.2 209.5C86.1 210.9 92.4 212.3 96.7 212.6C101.9 213 106.9 212.7 111.5 211.7C115.3 210.9 121.4 208.9 125 207.2C128.6 205.6 133.9 202.1 136.7 199.6C139.6 197.1 142.3 195 142.7 195C143.2 195 145.5 195.8 148 196.9C150.5 198.1 154.7 199 157.5 199C160.2 199 164.5 198.3 167 197.4C169.5 196.6 173.2 194.5 175.2 192.9C177.3 191.3 179.3 190 179.7 190C180.2 189.9 181.4 190.9 182.5 192C183.6 193.2 186.4 195 188.7 196C191.2 197.2 195.2 198 198.2 198C202 198 205 197.2 208.9 195.3C211.9 193.7 215.5 191.1 216.8 189.5C218.2 187.9 220.3 184.3 221.5 181.5C222.7 178.8 224.2 173.6 224.9 170C225.5 166.4 226 161.8 226 159.8V156H240.5C241.6 174.5 242.4 178.9 243.9 182.5C245.1 185.3 247.1 188.9 248.4 190.5C249.6 192.1 252.9 194.6 255.6 195.9C259.6 197.8 261.7 198.2 267.1 197.9C272.4 197.6 274.5 196.9 278 194.5L278.461 194.179L278.462 194.179C280.637 192.666 282.947 191.06 283.6 190.5C284.6 189.8 285.7 190.2 287.7 192.1C289.2 193.6 292.1 195.6 294 196.6C296.3 197.8 299.6 198.4 303.5 198.4C307.4 198.4 310.7 197.8 313 196.6C314.9 195.6 318.4 192.7 320.7 190.1L324.9 185.5C328.6 190.1 332.2 192.8 335.1 194.4C338.7 196.333 342.5 197.467 346.5 197.8C350.5 198.1 354.2 197.8 357.7 196.7C360.6 195.7 363.3 195.2 363.7 195.4C364.2 195.6 366.3 198.8 368.5 202.5C370.7 206.2 375 211.5 378 214.3C381 217.1 386.4 220.7 390 222.4C395.4 224.9 398.1 225.5 405.5 225.8C412.9 226.1 415.7 225.8 421 224C424.6 222.8 429.3 220.5 431.5 219C433.7 217.4 437.4 214.2 439.6 211.8C441.9 209.5 445.4 204.9 447.4 201.8C450.9 196.2 451.1 196 454.2 196.7C456 197.1 460.9 197.5 465.1 197.5C471.5 197.5 473.7 197 478.6 194.7L484.5 191.8C494 197.7 496.8 198.6 500.9 198.9C504 199 508.5 198.6 511 197.9C513.5 197.2 517.5 195 520 193.1C523.6 190.4 524.8 190 526 190.9C526.8 191.5 529.7 193.3 532.5 195C536.4 197.4 538.7 198 543 198C546.1 198 550.2 197.2 552.5 196.1C554.7 195.2 557.7 192.9 559.2 191.2C560.8 189.4 562 187.7 562 187.3C562 186.8 561.3 185.5 560.5 184.3C559.7 183 558 182 556.7 182C555.5 182 552.7 183.3 550.6 184.8C548.3 186.4 545.3 187.5 543.5 187.5C541.7 187.5 539.1 186.8 537.5 186C536 185.2 533.7 182.7 532.4 180.5C530.3 177 530.1 176 531 172C531.5 169.5 532 163.9 532 159.5C532 155.1 531.5 149.8 531 147.8C530.3 145.1 529.2 143.7 527.2 142.9C525.2 142.1 523.8 142.2 521.5 143.3C518.9 144.5 517.8 144.5 514 143.3C511.5 142.5 507.2 142.1 504.5 142.3C501.6 142.5 497.3 143.9 494.1 145.6C491.2 147.2 487.6 149.9 486.2 151.5C484.8 153.1 482.6 156.8 481.3 159.5C479.4 163.6 479 166.1 479 173.8V183C473.2 185.9 469.9 187 468 187.4C466.1 187.7 462.8 187.5 460.7 187C458.7 186.4 456.7 185.4 456.4 184.8C456.1 184.1 456.5 180.6 457.4 177C458.3 173.4 459.7 165.3 460.6 159C461.9 150.1 462.1 143.2 461.7 128.5C461.3 115.833 460.5 106.667 459.3 101C458.3 96.3 456.1 89.8 454.5 86.5C452.8 83.3 450.4 79.8 449 78.8C447.6 77.8 445.1 76.8 443.5 76.5C441.9 76.3 439.5 76.5 438.3 76.9ZM440.001 91.2001C439.301 92.5001 438.101 96.9001 437.401 101C436.701 105.1 436.101 113.9 436.101 120.5C436.001 127.1 436.701 137.2 437.401 143C438.201 148.8 439.601 156.2 440.501 159.5C441.501 162.8 443.201 167.3 444.301 169.5L446.301 173.5C448.401 167.3 449.501 161.9 450.001 157.5C450.601 153.1 451.001 143 451.001 135C451.001 127 450.501 116.6 450.001 111.8C449.401 106.9 448.001 100 446.701 96.3001C445.301 92.0001 443.901 89.4001 442.901 89.2001C441.901 89.0001 440.701 89.9001 440.001 91.2001ZM374.601 94.2001C373.701 95.5001 372.101 99.7001 371.101 103.5C370.101 107.4 368.601 115 368.001 120.5C367.301 126 366.701 137.3 366.701 145.5C366.601 154 367.201 163.1 367.901 166.5L369.201 172.5C372.101 168.6 374.201 163.4 375.901 158.5C377.501 153.6 379.601 145.2 380.601 140C381.701 133.9 382.301 125.2 382.301 115.5C382.401 104.4 382.001 99.5001 380.801 96.5001C380.001 94.3001 378.601 92.4001 377.701 92.2001C376.901 92.0001 375.501 92.9001 374.601 94.2001ZM151.701 156.1C153.301 155.1 156.101 153.8 158.001 153.2C159.901 152.7 162.801 152.5 164.501 152.8C166.201 153 168.501 153.9 169.701 154.6C171.701 155.8 172.001 156.9 172.001 162.3C172.001 165.7 172.501 170.3 173.001 172.5C173.701 175.9 173.501 177.1 171.701 180.3C170.501 182.4 167.901 185.1 166.001 186.2C163.801 187.5 160.801 188.3 158.001 188.3C155.501 188.2 152.401 187.6 151.201 186.9C149.901 186.1 147.901 183.9 146.701 182C145.201 179.4 144.601 176.9 144.601 172.5C144.601 168.4 145.301 165.2 146.801 162.3C148.001 159.9 150.201 157.1 151.701 156.1ZM503.001 153.2C501.101 153.8 498.401 155 497.101 155.9C495.801 156.8 493.601 159.5 492.201 162C490.201 165.5 489.601 167.9 489.601 172.5C489.601 176.8 490.201 179.5 491.701 182C492.801 183.9 495.301 186.1 497.101 186.9C499.001 187.7 502.301 188.3 504.501 188.2C506.701 188 509.901 187.1 511.501 186.1C513.101 185.1 515.501 182.3 516.701 179.9C518.401 176.4 518.601 174.8 517.901 172C517.401 170.1 517.001 165.8 517.001 162.5C517.001 159.2 516.601 156 516.201 155.4C515.801 154.8 514.601 154 513.501 153.7C512.649 153.468 511.259 153.176 510.025 152.917L509.543 152.815C509.355 152.776 509.173 152.737 509.001 152.7C507.601 152.4 504.901 152.7 503.001 153.2Z" fill="white"/>
</svg>
