<svg width="57" height="57" viewBox="0 0 57 57" fill="none" xmlns="http://www.w3.org/2000/svg">
<path d="M21.0234 7.00781H11.6797C10.4406 7.00781 9.25231 7.50002 8.37616 8.37616C7.50002 9.25231 7.00781 10.4406 7.00781 11.6797V21.0234C7.00781 22.2624 7.50002 23.4507 8.37616 24.3268C9.25231 25.203 10.4406 25.6952 11.6797 25.6952H21.0234C22.2624 25.6952 23.4507 25.203 24.3268 24.3268C25.203 23.4507 25.6952 22.2624 25.6952 21.0234V11.6797C25.6952 10.4406 25.203 9.25231 24.3268 8.37616C23.4507 7.50002 22.2624 7.00781 21.0234 7.00781ZM11.6797 21.0234V11.6797H21.0234V21.0234H11.6797Z" fill="black"/>
<path d="M44.3825 7.00781H35.0388C33.7997 7.00781 32.6114 7.50002 31.7353 8.37616C30.8592 9.25231 30.3669 10.4406 30.3669 11.6797V21.0234C30.3669 22.2624 30.8592 23.4507 31.7353 24.3268C32.6114 25.203 33.7997 25.6952 35.0388 25.6952H44.3825C45.6215 25.6952 46.8098 25.203 47.686 24.3268C48.5621 23.4507 49.0543 22.2624 49.0543 21.0234V11.6797C49.0543 10.4406 48.5621 9.25231 47.686 8.37616C46.8098 7.50002 45.6215 7.00781 44.3825 7.00781ZM35.0388 21.0234V11.6797H44.3825V21.0234H35.0388Z" fill="black"/>
<path d="M21.0234 30.3669H11.6797C10.4406 30.3669 9.25231 30.8592 8.37616 31.7353C7.50002 32.6114 7.00781 33.7997 7.00781 35.0388V44.3825C7.00781 45.6215 7.50002 46.8098 8.37616 47.686C9.25231 48.5621 10.4406 49.0543 11.6797 49.0543H21.0234C22.2624 49.0543 23.4507 48.5621 24.3268 47.686C25.203 46.8098 25.6952 45.6215 25.6952 44.3825V35.0388C25.6952 33.7997 25.203 32.6114 24.3268 31.7353C23.4507 30.8592 22.2624 30.3669 21.0234 30.3669ZM11.6797 44.3825V35.0388H21.0234V44.3825H11.6797Z" fill="black"/>
<path d="M44.3825 30.3669H35.0388C33.7997 30.3669 32.6114 30.8592 31.7353 31.7353C30.8592 32.6114 30.3669 33.7997 30.3669 35.0388V44.3825C30.3669 45.6215 30.8592 46.8098 31.7353 47.686C32.6114 48.5621 33.7997 49.0543 35.0388 49.0543H44.3825C45.6215 49.0543 46.8098 48.5621 47.686 47.686C48.5621 46.8098 49.0543 45.6215 49.0543 44.3825V35.0388C49.0543 33.7997 48.5621 32.6114 47.686 31.7353C46.8098 30.8592 45.6215 30.3669 44.3825 30.3669ZM35.0388 44.3825V35.0388H44.3825V44.3825H35.0388Z" fill="black"/>
</svg>
