<svg width="25" height="25" viewBox="0 0 25 25" fill="none" xmlns="http://www.w3.org/2000/svg">
<path d="M20.515 11.5551C20.2502 11.5551 19.9963 11.6602 19.809 11.8475C19.6218 12.0347 19.5166 12.2887 19.5166 12.5535V18.5439C19.5166 18.8087 19.4114 19.0627 19.2242 19.2499C19.0369 19.4372 18.783 19.5424 18.5182 19.5424H6.53723C6.27244 19.5424 6.01849 19.4372 5.83125 19.2499C5.64401 19.0627 5.53882 18.8087 5.53882 18.5439V6.56299C5.53882 6.29819 5.64401 6.04424 5.83125 5.857C6.01849 5.66976 6.27244 5.56458 6.53723 5.56458H12.5277C12.7925 5.56458 13.0465 5.45939 13.2337 5.27215C13.4209 5.08491 13.5261 4.83096 13.5261 4.56616C13.5261 4.30137 13.4209 4.04742 13.2337 3.86018C13.0465 3.67294 12.7925 3.56775 12.5277 3.56775H6.53723C5.74284 3.56775 4.98099 3.88332 4.41928 4.44503C3.85756 5.00675 3.54199 5.7686 3.54199 6.56299V18.5439C3.54199 19.3383 3.85756 20.1002 4.41928 20.6619C4.98099 21.2236 5.74284 21.5392 6.53723 21.5392H18.5182C19.3126 21.5392 20.0744 21.2236 20.6361 20.6619C21.1979 20.1002 21.5134 19.3383 21.5134 18.5439V12.5535C21.5134 12.2887 21.4082 12.0347 21.221 11.8475C21.0338 11.6602 20.7798 11.5551 20.515 11.5551Z" fill="#01CC5E"/>
<path d="M16.5213 5.56457H18.0988L11.8188 11.8346C11.7252 11.9274 11.6509 12.0378 11.6002 12.1595C11.5495 12.2812 11.5234 12.4117 11.5234 12.5435C11.5234 12.6753 11.5495 12.8058 11.6002 12.9274C11.6509 13.0491 11.7252 13.1595 11.8188 13.2524C11.9116 13.3459 12.022 13.4202 12.1437 13.4709C12.2653 13.5216 12.3958 13.5477 12.5276 13.5477C12.6594 13.5477 12.7899 13.5216 12.9116 13.4709C13.0333 13.4202 13.1437 13.3459 13.2365 13.2524L19.5165 6.98232V8.55981C19.5165 8.82461 19.6217 9.07856 19.809 9.2658C19.9962 9.45304 20.2501 9.55823 20.5149 9.55823C20.7797 9.55823 21.0337 9.45304 21.2209 9.2658C21.4082 9.07856 21.5134 8.82461 21.5134 8.55981V4.56616C21.5134 4.30137 21.4082 4.04742 21.2209 3.86018C21.0337 3.67294 20.7797 3.56775 20.5149 3.56775H16.5213C16.2565 3.56775 16.0025 3.67294 15.8153 3.86018C15.6281 4.04742 15.5229 4.30137 15.5229 4.56616C15.5229 4.83096 15.6281 5.08491 15.8153 5.27215C16.0025 5.45939 16.2565 5.56457 16.5213 5.56457Z" fill="#01CC5E"/>
</svg>
