<svg width="118" height="118" viewBox="0 0 118 118" fill="none" xmlns="http://www.w3.org/2000/svg">
<path d="M58.9997 9.76025C49.3479 9.76025 39.9128 12.6223 31.8876 17.9846C23.8624 23.3469 17.6075 30.9685 13.914 39.8856C10.2204 48.8027 9.25395 58.6148 11.1369 68.0812C13.0199 77.5475 17.6677 86.2429 24.4926 93.0678C31.3174 99.8927 40.0128 104.54 49.4792 106.423C58.9455 108.306 68.7577 107.34 77.6748 103.646C86.5919 99.9528 94.2135 93.6979 99.5757 85.6728C104.938 77.6476 107.8 68.2125 107.8 58.5607C107.8 52.1521 106.538 45.8063 104.085 39.8856C101.633 33.9648 98.0383 28.5851 93.5068 24.0536C88.9752 19.522 83.5955 15.9274 77.6748 13.475C71.7541 11.0225 65.4082 9.76025 58.9997 9.76025ZM63.8797 78.0809C63.8797 79.3751 63.3656 80.6164 62.4504 81.5316C61.5352 82.4468 60.2939 82.9609 58.9997 82.9609C57.7054 82.9609 56.4641 82.4468 55.549 81.5316C54.6338 80.6164 54.1196 79.3751 54.1196 78.0809V53.6806C54.1196 52.3864 54.6338 51.1451 55.549 50.2299C56.4641 49.3147 57.7054 48.8006 58.9997 48.8006C60.2939 48.8006 61.5352 49.3147 62.4504 50.2299C63.3656 51.1451 63.8797 52.3864 63.8797 53.6806V78.0809ZM58.9997 43.9206C58.0345 43.9206 57.091 43.6343 56.2885 43.0981C55.4859 42.5619 54.8605 41.7997 54.4911 40.908C54.1217 40.0163 54.0251 39.0351 54.2134 38.0885C54.4017 37.1418 54.8665 36.2723 55.549 35.5898C56.2314 34.9073 57.101 34.4425 58.0476 34.2542C58.9943 34.0659 59.9755 34.1626 60.8672 34.5319C61.7589 34.9013 62.5211 35.5268 63.0573 36.3293C63.5935 37.1318 63.8797 38.0753 63.8797 39.0405C63.8797 40.3348 63.3656 41.576 62.4504 42.4912C61.5352 43.4064 60.2939 43.9206 58.9997 43.9206Z" fill="#B6B6B6"/>
</svg>
