<svg width="12" height="12" viewBox="0 0 12 12" fill="none" xmlns="http://www.w3.org/2000/svg">
<path d="M1.37873 4.36845L4.08623 1.66094C4.65403 1.09314 5.437 0.788323 6.23789 0.830161L9.22634 0.973605C10.4217 1.0274 11.372 1.97771 11.4318 3.1671L11.5752 6.15552C11.6111 6.95642 11.3123 7.73938 10.7445 8.30718L8.03695 11.0147C6.92523 12.1264 5.12023 12.1264 4.00256 11.0147L1.37873 8.39086C0.261058 7.28514 0.261058 5.48014 1.37873 4.36845ZM7.55282 6.56792C8.50314 6.56792 9.27415 5.79691 9.27415 4.8466C9.27415 3.89628 8.50314 3.12527 7.55282 3.12527C6.60248 3.12527 5.83147 3.89628 5.83147 4.8466C5.83147 5.79691 6.60248 6.56792 7.55282 6.56792Z" fill="#808080"/>
</svg>
