<svg width="42" height="43" viewBox="0 0 42 43" fill="none" xmlns="http://www.w3.org/2000/svg">
<path d="M35.21 12.5504L30.2575 7.59786C29.2739 6.61301 27.9394 6.05909 26.5475 6.05786H15.4525C14.0606 6.05909 12.7261 6.61301 11.7425 7.59786L6.79 12.5504C5.80515 13.534 5.25123 14.8684 5.25 16.2604V32.3079C5.25 33.7002 5.80312 35.0356 6.78769 36.0202C7.77226 37.0047 9.10761 37.5579 10.5 37.5579H31.5C32.8924 37.5579 34.2277 37.0047 35.2123 36.0202C36.1969 35.0356 36.75 33.7002 36.75 32.3079V16.2604C36.7488 14.8684 36.1948 13.534 35.21 12.5504ZM14.21 10.0654C14.5454 9.74558 14.9892 9.56431 15.4525 9.55786H26.5475C27.0108 9.56431 27.4546 9.74558 27.79 10.0654L30.7825 13.0579H11.2175L14.21 10.0654ZM31.5 34.0579H10.5C10.0359 34.0579 9.59075 33.8735 9.26256 33.5453C8.93437 33.2171 8.75 32.772 8.75 32.3079V16.5579H33.25V32.3079C33.25 32.772 33.0656 33.2171 32.7374 33.5453C32.4092 33.8735 31.9641 34.0579 31.5 34.0579Z" fill="black"/>
<path d="M26.2498 20.0581C25.7856 20.0581 25.3405 20.2425 25.0123 20.5707C24.6841 20.8989 24.4998 21.344 24.4998 21.8081C24.4998 22.7364 24.131 23.6266 23.4746 24.283C22.8183 24.9394 21.928 25.3081 20.9998 25.3081C20.0715 25.3081 19.1813 24.9394 18.5249 24.283C17.8685 23.6266 17.4998 22.7364 17.4998 21.8081C17.4998 21.344 17.3154 20.8989 16.9872 20.5707C16.659 20.2425 16.2139 20.0581 15.7498 20.0581C15.2856 20.0581 14.8405 20.2425 14.5123 20.5707C14.1841 20.8989 13.9998 21.344 13.9998 21.8081C13.9998 23.6646 14.7373 25.4451 16.05 26.7579C17.3628 28.0706 19.1432 28.8081 20.9998 28.8081C22.8563 28.8081 24.6367 28.0706 25.9495 26.7579C27.2623 25.4451 27.9998 23.6646 27.9998 21.8081C27.9998 21.344 27.8154 20.8989 27.4872 20.5707C27.159 20.2425 26.7139 20.0581 26.2498 20.0581Z" fill="black"/>
</svg>
