<svg width="66" height="65" viewBox="0 0 66 65" fill="none" xmlns="http://www.w3.org/2000/svg">
<path d="M11.4428 21.8316C12.9273 21.8316 14.1307 20.6282 14.1307 19.1437C14.1307 17.6592 12.9273 16.4558 11.4428 16.4558C9.95829 16.4558 8.75488 17.6592 8.75488 19.1437C8.75488 20.6282 9.95829 21.8316 11.4428 21.8316Z" fill="black"/>
<path d="M11.4428 35.2711C12.9273 35.2711 14.1307 34.0676 14.1307 32.5832C14.1307 31.0987 12.9273 29.8953 11.4428 29.8953C9.95829 29.8953 8.75488 31.0987 8.75488 32.5832C8.75488 34.0676 9.95829 35.2711 11.4428 35.2711Z" fill="black"/>
<path d="M11.4428 48.7105C12.9273 48.7105 14.1307 47.5071 14.1307 46.0226C14.1307 44.5381 12.9273 43.3347 11.4428 43.3347C9.95829 43.3347 8.75488 44.5381 8.75488 46.0226C8.75488 47.5071 9.95829 48.7105 11.4428 48.7105Z" fill="black"/>
<path d="M54.6103 29.8953H22.033C20.6376 29.8953 19.5063 31.0265 19.5063 32.4219V32.7444C19.5063 34.1398 20.6376 35.2711 22.033 35.2711H54.6103C56.0057 35.2711 57.1369 34.1398 57.1369 32.7444V32.4219C57.1369 31.0265 56.0057 29.8953 54.6103 29.8953Z" fill="black"/>
<path d="M54.6103 43.3347H22.033C20.6376 43.3347 19.5063 44.4659 19.5063 45.8613V46.1839C19.5063 47.5793 20.6376 48.7105 22.033 48.7105H54.6103C56.0057 48.7105 57.1369 47.5793 57.1369 46.1839V45.8613C57.1369 44.4659 56.0057 43.3347 54.6103 43.3347Z" fill="black"/>
<path d="M54.6103 16.4558H22.033C20.6376 16.4558 19.5063 17.587 19.5063 18.9824V19.305C19.5063 20.7004 20.6376 21.8316 22.033 21.8316H54.6103C56.0057 21.8316 57.1369 20.7004 57.1369 19.305V18.9824C57.1369 17.587 56.0057 16.4558 54.6103 16.4558Z" fill="black"/>
</svg>
