<svg width="91" height="47" viewBox="0 0 91 47" fill="none" xmlns="http://www.w3.org/2000/svg">
<g id="Group 79">
<g id="Econo">
<path d="M0.179199 28.1495V27.81L0.960174 27.5044C1.345 27.3459 1.60533 27.1422 1.74115 26.8932C1.89961 26.6215 1.97884 26.2593 1.97884 25.8066V8.08188C1.97884 7.62914 1.91093 7.27827 1.7751 7.02926C1.66192 6.75762 1.39028 6.54256 0.960174 6.38411L0.179199 6.07851V5.73895H16.4438L16.6476 10.9681H16.308L14.8479 7.77628C14.6442 7.36881 14.4292 7.04058 14.2028 6.79157C13.9764 6.54256 13.6369 6.41806 13.1841 6.41806H7.07215V16.2312H10.7054C11.1581 16.2312 11.4977 16.118 11.724 15.8916C11.973 15.6426 12.1881 15.3144 12.3692 14.9069L13.0483 13.5487H13.3879V19.6607H13.0483L12.3692 18.2345C12.1655 17.8271 11.9504 17.5102 11.724 17.2838C11.4977 17.0348 11.1581 16.9103 10.7054 16.9103H7.07215V27.4704H13.9311C14.3839 27.4704 14.7348 27.3572 14.9838 27.1309C15.2328 26.8819 15.4365 26.5423 15.595 26.1122L16.9871 22.9204H17.3267L17.123 28.1495H0.179199Z" fill="white"/>
<path d="M27.1679 28.6589C25.6286 28.6589 24.2251 28.3306 22.9574 27.6742C21.7124 26.995 20.7164 26.0217 19.9694 24.754C19.245 23.4637 18.8828 21.8904 18.8828 20.0342C18.8828 18.2006 19.2789 16.6386 20.0712 15.3483C20.8862 14.0354 21.9614 13.0394 23.297 12.3603C24.6552 11.6585 26.1379 11.3076 27.7452 11.3076C29.0581 11.3076 30.1673 11.5227 31.0728 11.9528C31.9783 12.3829 32.6687 12.9488 33.1441 13.6506C33.6195 14.3297 33.8571 15.0427 33.8571 15.7898C33.8571 16.4236 33.6647 16.9216 33.2799 17.2838C32.8951 17.6233 32.3971 17.7931 31.7859 17.7931C31.1294 17.7931 30.5974 17.5554 30.19 17.0801C29.7825 16.6047 29.5448 15.9822 29.4769 15.2125C29.4543 14.7145 29.4656 14.2957 29.5108 13.9562C29.5561 13.594 29.5561 13.2318 29.5108 12.8696C29.4203 12.4848 29.2732 12.2358 29.0694 12.1226C28.8883 11.9867 28.628 11.9188 28.2885 11.9188C26.9076 11.9188 25.8323 12.5187 25.0627 13.7185C24.3157 14.9182 23.9422 16.8311 23.9422 19.4569C23.9422 21.7433 24.3609 23.4976 25.1985 24.72C26.0587 25.9198 27.3717 26.5197 29.1373 26.5197C30.2013 26.5197 31.0615 26.3273 31.7179 25.9424C32.3744 25.5576 33.0083 24.9804 33.6194 24.2107L33.959 24.4823C33.3931 25.8179 32.5216 26.8479 31.3444 27.5723C30.1673 28.2967 28.7751 28.6589 27.1679 28.6589Z" fill="white"/>
<path d="M43.9175 28.6589C42.1971 28.6589 40.703 28.308 39.4354 27.6062C38.1677 26.8819 37.183 25.8632 36.4813 24.5503C35.8021 23.2373 35.4626 21.698 35.4626 19.9323C35.4626 18.1666 35.8248 16.6386 36.5492 15.3483C37.2962 14.058 38.3035 13.062 39.5712 12.3603C40.8615 11.6585 42.3103 11.3076 43.9175 11.3076C45.5247 11.3076 46.9622 11.6585 48.2298 12.3603C49.4975 13.0394 50.4935 14.0241 51.2179 15.3144C51.9649 16.6047 52.3384 18.144 52.3384 19.9323C52.3384 21.7206 51.9876 23.2713 51.2858 24.5842C50.6067 25.8745 49.6333 26.8819 48.3657 27.6062C47.1206 28.308 45.6379 28.6589 43.9175 28.6589ZM43.9175 27.9798C44.7098 27.9798 45.3436 27.7534 45.819 27.3006C46.2944 26.8479 46.6339 26.0443 46.8377 24.8898C47.064 23.7353 47.1772 22.1055 47.1772 20.0002C47.1772 17.8724 47.064 16.2312 46.8377 15.0767C46.6339 13.9222 46.2944 13.1186 45.819 12.6659C45.3436 12.2131 44.7098 11.9868 43.9175 11.9868C43.1252 11.9868 42.48 12.2131 41.982 12.6659C41.5067 13.1186 41.1558 13.9222 40.9294 15.0767C40.7257 16.2312 40.6238 17.8724 40.6238 20.0002C40.6238 22.1055 40.7257 23.7353 40.9294 24.8898C41.1558 26.0443 41.5067 26.8479 41.982 27.3006C42.48 27.7534 43.1252 27.9798 43.9175 27.9798Z" fill="white"/>
<path d="M53.8298 28.1495V27.81L54.3052 27.6742C55.0975 27.4478 55.4936 26.8932 55.4936 26.0103V15.3823C55.4936 14.8843 55.4144 14.5221 55.2559 14.2957C55.0975 14.0467 54.7919 13.8769 54.3391 13.7864L53.8298 13.6506V13.311L59.6362 11.3416L59.9757 11.6812L60.2474 13.7185C61.0397 13.0167 61.9338 12.4395 62.9299 11.9868C63.9259 11.534 64.9106 11.3076 65.884 11.3076C67.378 11.3076 68.5212 11.7151 69.3135 12.53C70.1284 13.345 70.5359 14.59 70.5359 16.2651V26.0443C70.5359 26.9271 70.966 27.4817 71.8262 27.7081L72.1318 27.81V28.1495H64.1183V27.81L64.5597 27.6742C65.352 27.4251 65.7482 26.8705 65.7482 26.0103V15.1786C65.7482 13.7298 65.0238 13.0054 63.575 13.0054C62.579 13.0054 61.4924 13.5034 60.3153 14.4995V26.0443C60.3153 26.9271 60.7114 27.4817 61.5037 27.7081L61.8093 27.81V28.1495H53.8298Z" fill="white"/>
<path d="M82.051 28.6589C80.3306 28.6589 78.8366 28.308 77.5689 27.6062C76.3012 26.8819 75.3165 25.8632 74.6148 24.5503C73.9357 23.2373 73.5961 21.698 73.5961 19.9323C73.5961 18.1666 73.9583 16.6386 74.6827 15.3483C75.4297 14.058 76.437 13.062 77.7047 12.3603C78.995 11.6585 80.4438 11.3076 82.051 11.3076C83.6582 11.3076 85.0957 11.6585 86.3633 12.3603C87.631 13.0394 88.627 14.0241 89.3514 15.3144C90.0984 16.6047 90.472 18.144 90.472 19.9323C90.472 21.7206 90.1211 23.2713 89.4193 24.5842C88.7402 25.8745 87.7668 26.8819 86.4992 27.6062C85.2541 28.308 83.7714 28.6589 82.051 28.6589ZM82.051 27.9798C82.8433 27.9798 83.4771 27.7534 83.9525 27.3006C84.4279 26.8479 84.7674 26.0443 84.9712 24.8898C85.1975 23.7353 85.3107 22.1055 85.3107 20.0002C85.3107 17.8724 85.1975 16.2312 84.9712 15.0767C84.7674 13.9222 84.4279 13.1186 83.9525 12.6659C83.4771 12.2131 82.8433 11.9868 82.051 11.9868C81.2587 11.9868 80.6136 12.2131 80.1156 12.6659C79.6402 13.1186 79.2893 13.9222 79.0629 15.0767C78.8592 16.2312 78.7573 17.8724 78.7573 20.0002C78.7573 22.1055 78.8592 23.7353 79.0629 24.8898C79.2893 26.0443 79.6402 26.8479 80.1156 27.3006C80.6136 27.7534 81.2587 27.9798 82.051 27.9798Z" fill="white"/>
</g>
<path id="e" d="M78.1301 41.6857H70.2513C70.323 42.6646 70.699 43.4585 71.3794 44.0673C72.0599 44.6641 72.9194 44.9626 73.9579 44.9626C74.5429 44.9626 75.0801 44.8611 75.5695 44.6582C76.0589 44.4433 76.4827 44.1329 76.8409 43.7271L77.5571 44.5507C77.1393 45.0521 76.614 45.4341 75.9814 45.6967C75.3606 45.9594 74.6742 46.0907 73.9221 46.0907C72.9552 46.0907 72.0957 45.8877 71.3436 45.4819C70.6035 45.0641 70.0245 44.4911 69.6067 43.7629C69.1889 43.0347 68.98 42.211 68.98 41.2918C68.98 40.3726 69.177 39.5489 69.5709 38.8207C69.9768 38.0925 70.5259 37.5255 71.2183 37.1196C71.9226 36.7137 72.7105 36.5108 73.5819 36.5108C74.4533 36.5108 75.2353 36.7137 75.9276 37.1196C76.62 37.5255 77.1632 38.0925 77.5571 38.8207C77.9511 39.537 78.148 40.3607 78.148 41.2918L78.1301 41.6857ZM73.5819 37.6031C72.6747 37.6031 71.9106 37.8956 71.2899 38.4805C70.6811 39.0535 70.3349 39.8056 70.2513 40.7367H76.9304C76.8468 39.8056 76.4947 39.0535 75.8739 38.4805C75.2651 37.8956 74.5011 37.6031 73.5819 37.6031Z" fill="white"/>
<g id="market">
<path d="M12.1322 36.4684C13.3201 36.4684 14.2501 36.8104 14.922 37.4943C15.6059 38.1783 15.9479 39.1862 15.9479 40.5181V46.0076H14.67V40.6441C14.67 39.6602 14.43 38.9102 13.9501 38.3943C13.4821 37.8783 12.8162 37.6203 11.9522 37.6203C10.9683 37.6203 10.1944 37.9263 9.63043 38.5383C9.06648 39.1382 8.7845 39.9721 8.7845 41.0401V46.0076H7.50661V40.6441C7.50661 39.6602 7.26663 38.9102 6.78667 38.3943C6.3187 37.8783 5.64676 37.6203 4.77083 37.6203C3.79891 37.6203 3.02497 37.9263 2.44902 38.5383C1.88507 39.1382 1.60309 39.9721 1.60309 41.0401V46.0076H0.325195V36.5404H1.5491V38.2683C1.88507 37.6923 2.35303 37.2484 2.95298 36.9364C3.55293 36.6244 4.24287 36.4684 5.02281 36.4684C5.81475 36.4684 6.49869 36.6364 7.07464 36.9724C7.66259 37.3084 8.10056 37.8063 8.38853 38.4663C8.73651 37.8423 9.23446 37.3564 9.88241 37.0084C10.5424 36.6484 11.2923 36.4684 12.1322 36.4684Z" fill="white"/>
<path d="M33.2175 36.5404V46.0076H31.9936V44.1358C31.6096 44.7717 31.0997 45.2577 30.4637 45.5937C29.8398 45.9297 29.1318 46.0976 28.3399 46.0976C27.452 46.0976 26.648 45.8937 25.9281 45.4857C25.2082 45.0777 24.6442 44.5078 24.2362 43.7758C23.8283 43.0439 23.6243 42.21 23.6243 41.274C23.6243 40.3381 23.8283 39.5042 24.2362 38.7722C24.6442 38.0403 25.2082 37.4763 25.9281 37.0804C26.648 36.6724 27.452 36.4684 28.3399 36.4684C29.1078 36.4684 29.7978 36.6304 30.4097 36.9544C31.0337 37.2664 31.5436 37.7283 31.9396 38.3403V36.5404H33.2175ZM28.4479 44.9637C29.1078 44.9637 29.7018 44.8137 30.2297 44.5138C30.7697 44.2018 31.1897 43.7638 31.4896 43.1999C31.8016 42.6359 31.9576 41.994 31.9576 41.274C31.9576 40.5541 31.8016 39.9121 31.4896 39.3482C31.1897 38.7842 30.7697 38.3523 30.2297 38.0523C29.7018 37.7403 29.1078 37.5843 28.4479 37.5843C27.7759 37.5843 27.17 37.7403 26.63 38.0523C26.1021 38.3523 25.6821 38.7842 25.3701 39.3482C25.0702 39.9121 24.9202 40.5541 24.9202 41.274C24.9202 41.994 25.0702 42.6359 25.3701 43.1999C25.6821 43.7638 26.1021 44.2018 26.63 44.5138C27.17 44.8137 27.7759 44.9637 28.4479 44.9637Z" fill="white"/>
<path d="M43.1299 38.3943C43.4299 37.7583 43.8738 37.2784 44.4618 36.9544C45.0617 36.6304 45.7997 36.4684 46.6756 36.4684V37.7103L46.3696 37.6923C45.3737 37.6923 44.5938 37.9983 44.0298 38.6103C43.4659 39.2222 43.1839 40.0801 43.1839 41.184V46.0076H41.906V36.5404H43.1299V38.3943Z" fill="white"/>
<path d="M57.6287 41.256L55.3969 43.3079V46.0076H54.119V32.6527H55.3969V41.706L61.0484 36.5404H62.6323L58.5826 40.4101L63.0103 46.0076H61.4444L57.6287 41.256Z" fill="white"/>
<path d="M90.3251 45.4317C90.0852 45.6477 89.7912 45.8157 89.4432 45.9357C89.0952 46.0436 88.7293 46.0976 88.3453 46.0976C87.4574 46.0976 86.7734 45.8577 86.2935 45.3777C85.8135 44.8977 85.5735 44.2198 85.5735 43.3439V34.4706H86.8514V36.5404H89.7132V37.6203H86.8514V43.2719C86.8514 43.8358 86.9894 44.2678 87.2654 44.5678C87.5414 44.8557 87.9433 44.9997 88.4713 44.9997C89.0472 44.9997 89.5152 44.8377 89.8752 44.5138L90.3251 45.4317Z" fill="white"/>
</g>
<path id="Vector 79" d="M44.9161 9.23115C44.585 7.82918 45.6227 4.49052 50.4787 3.38689C55.6488 2.21184 47.0966 8.85917 44.6245 7.82911C42.1523 6.79905 45.313 0.286494 52.9725 1.06433" stroke="white" stroke-width="1.10363" stroke-linecap="square"/>
</g>
</svg>
