<svg width="19" height="19" viewBox="0 0 19 19" fill="none" xmlns="http://www.w3.org/2000/svg">
<g id="lupa" opacity="0.7">
<g id="Group">
<path id="Vector" d="M0.31008 7.85879C0.31008 12.01 3.68948 15.3894 7.84073 15.3894C11.992 15.3894 15.3714 12.01 15.3714 7.85879C15.3714 3.70754 11.992 0.328146 7.84073 0.328146C3.68948 0.328146 0.31008 3.70754 0.31008 7.85879ZM1.77549 7.85879C1.77549 4.51785 4.49292 1.79355 7.84073 1.79355C11.1885 1.79355 13.906 4.51785 13.906 7.85879C13.906 11.1997 11.1885 13.924 7.84073 13.924C4.49292 13.924 1.77549 11.1997 1.77549 7.85879Z" fill="#A6A6A6" stroke="#A6A6A6" stroke-width="0.392048"/>
<path id="Vector_2" d="M17.4576 18.5734C17.1823 18.5734 16.9071 18.4721 16.6899 18.255L13.7928 15.36C13.3728 14.9402 13.3728 14.2455 13.7928 13.8257C14.2129 13.4059 14.9082 13.4059 15.3283 13.8257L18.2253 16.7206C18.6453 17.1404 18.6453 17.8352 18.2253 18.255C18.008 18.4721 17.7328 18.5734 17.4576 18.5734Z" fill="#A6A6A6"/>
</g>
</g>
</svg>
