<svg width="17" height="17" viewBox="0 0 17 17" fill="none" xmlns="http://www.w3.org/2000/svg">
<g id="&#240;&#159;&#166;&#134; icon &#34;star&#34;">
<g id="Group">
<path id="Vector" d="M9.7011 1.62937L11.0796 4.38637C11.2654 4.76765 11.764 5.12939 12.1844 5.2076L14.6774 5.61822C16.271 5.88218 16.6425 7.03582 15.4986 8.18946L13.5531 10.135C13.2304 10.4576 13.0447 11.0931 13.1522 11.5526L13.7095 13.9576C14.1494 15.8543 13.1327 16.5973 11.4609 15.6001L9.12428 14.2118C8.70389 13.9576 7.99998 13.9576 7.57958 14.2118L5.24298 15.6001C3.57119 16.5875 2.55445 15.8543 2.99439 13.9576L3.55166 11.5526C3.6592 11.1029 3.47345 10.4674 3.15082 10.135L1.20529 8.18946C0.0614291 7.0456 0.432939 5.89196 2.02652 5.61822L4.51951 5.2076C4.93991 5.13916 5.43851 4.76765 5.62427 4.38637L7.00276 1.62937C7.73601 0.133553 8.9483 0.133553 9.7011 1.62937Z" fill="white"/>
</g>
</g>
</svg>
