<svg width="12" height="12" viewBox="0 0 12 12" fill="none" xmlns="http://www.w3.org/2000/svg">
<g id="&#240;&#159;&#166;&#134; icon &#34;tag&#34;">
<path id="Vector" d="M0.838229 3.86875L3.54574 1.16125C4.11354 0.593447 4.8965 0.288628 5.6974 0.330466L8.68584 0.47391C9.88121 0.527701 10.8315 1.47802 10.8913 2.66741L11.0347 5.65583C11.0706 6.45672 10.7718 7.23969 10.204 7.80749L7.49645 10.515C6.38473 11.6267 4.57973 11.6267 3.46206 10.515L0.838229 7.89116C-0.279439 6.78545 -0.279439 4.98044 0.838229 3.86875ZM7.01233 6.06823C7.96264 6.06823 8.73365 5.29722 8.73365 4.3469C8.73365 3.39658 7.96264 2.62557 7.01233 2.62557C6.06198 2.62557 5.29097 3.39658 5.29097 4.3469C5.29097 5.29722 6.06198 6.06823 7.01233 6.06823Z" fill="#808080"/>
</g>
</svg>
